<svg width="70" height="69" viewBox="0 0 70 69" fill="none" xmlns="http://www.w3.org/2000/svg">
<g id="logos:whatsapp-icon" clip-path="url(#clip0_4269_88)">
<path id="Vector" d="M1.4938 33.8953C1.49216 39.66 3.04091 45.2888 5.98583 50.2501L1.21216 67.2015L19.049 62.6529C23.9825 65.265 29.51 66.6337 35.1272 66.634H35.1419C53.6851 66.634 68.7797 51.9588 68.7876 33.9211C68.7911 25.1805 65.2944 16.9615 58.9414 10.7779C52.5894 4.59487 44.1416 1.18795 35.1406 1.18396C16.5952 1.18396 1.50173 15.8584 1.49407 33.8953" fill="url(#paint0_linear_4269_88)"/>
<path id="Vector_2" d="M0.292578 33.8846C0.290664 39.8568 1.89492 45.6869 4.94484 50.8259L0 68.3849L18.4764 63.6733C23.5673 66.3728 29.2991 67.7961 35.1315 67.7982H35.1466C54.355 67.7982 69.9918 52.5952 70 33.9118C70.0033 24.8571 66.3808 16.3426 59.8008 9.93754C53.22 3.53324 44.47 0.00372312 35.1466 0C15.9348 0 0.300234 15.201 0.292578 33.8846ZM11.2957 49.9408L10.6058 48.8758C7.70574 44.391 6.17504 39.2084 6.17723 33.8868C6.18352 18.3574 19.1784 5.72297 35.1575 5.72297C42.8958 5.72616 50.1681 8.65997 55.638 13.983C61.1075 19.3065 64.1173 26.3831 64.1154 33.9096C64.1082 49.439 51.1131 62.075 35.1466 62.075H35.1351C29.9362 62.0724 24.8374 60.7145 20.3908 58.1485L19.3326 57.5381L8.36828 60.3339L11.2957 49.9406V49.9408Z" fill="url(#paint1_linear_4269_88)"/>
<path id="Vector_3" d="M26.4354 19.7187C25.783 18.3084 25.0964 18.28 24.476 18.2552C23.9679 18.234 23.3871 18.2356 22.8069 18.2356C22.2261 18.2356 21.2825 18.448 20.4849 19.2951C19.6864 20.1429 17.4366 22.1916 17.4366 26.3586C17.4366 30.5258 20.5573 34.5529 20.9924 35.1186C21.428 35.6832 27.017 44.508 35.8687 47.903C43.2253 50.7243 44.7224 50.1632 46.319 50.0217C47.9158 49.8807 51.4716 47.9734 52.1971 45.9957C52.923 44.0182 52.923 42.3231 52.7054 41.9689C52.4877 41.616 51.9069 41.404 51.036 40.9806C50.1649 40.557 45.8834 38.5079 45.0852 38.2253C44.2868 37.9428 43.7063 37.8019 43.1255 38.65C42.5447 39.4967 40.877 41.404 40.3687 41.9689C39.8609 42.535 39.3526 42.6055 38.482 42.1819C37.6105 41.7569 34.8059 40.8636 31.4784 37.9785C28.8895 35.7334 27.1417 32.961 26.6337 32.113C26.1256 31.2662 26.5792 30.8072 27.0159 30.3852C27.4072 30.0057 27.8871 29.3961 28.323 28.9018C28.7572 28.4071 28.9021 28.0542 29.1925 27.4894C29.4831 26.924 29.3377 26.4293 29.1203 26.0057C28.9021 25.5821 27.2098 21.3933 26.4354 19.7187Z" fill="white"/>
</g>
<defs>
<linearGradient id="paint0_linear_4269_88" x1="34.9999" y1="67.2015" x2="34.9999" y2="1.18396" gradientUnits="userSpaceOnUse">
<stop stop-color="#1FAF38"/>
<stop offset="1" stop-color="#60D669"/>
</linearGradient>
<linearGradient id="paint1_linear_4269_88" x1="35" y1="68.3849" x2="35" y2="0" gradientUnits="userSpaceOnUse">
<stop stop-color="#F9F9F9"/>
<stop offset="1" stop-color="white"/>
</linearGradient>
<clipPath id="clip0_4269_88">
<rect width="70" height="68.6118" fill="white"/>
</clipPath>
</defs>
</svg>
